<svg width="7" height="14" viewBox="0 0 7 14" fill="none" xmlns="http://www.w3.org/2000/svg">
<g id="world">
<path id="Shape" fill-rule="evenodd" clip-rule="evenodd" d="M0.337502 -0.834099C0.316176 -0.836507 0.294868 -0.839201 0.273548 -0.841897C0.20787 -0.850202 0.142078 -0.858521 0.075326 -0.858521C0.061481 -0.858521 0.0477975 -0.856665 0.0341455 -0.854814C0.0223329 -0.853212 0.0105439 -0.851613 -0.00130558 -0.851222C-0.0226835 -0.851614 -0.0439402 -0.853216 -0.0652164 -0.85482H-0.0652185H-0.0652207H-0.0652228H-0.065225H-0.0652271H-0.0652293H-0.0652314H-0.0652336H-0.0652357H-0.0652378H-0.06524C-0.0897723 -0.85667 -0.11433 -0.858521 -0.13913 -0.858521C-4.47288 -0.858521 -7.99878 2.66765 -7.99878 7.00113C-7.99878 11.3352 -4.47288 14.8608 -0.13913 14.8608C-0.114209 14.8608 -0.0895309 14.859 -0.0649222 14.8572C-0.0437964 14.8557 -0.0227214 14.8541 -0.00158644 14.8538C0.0103933 14.8542 0.022252 14.8557 0.0341019 14.8572C0.0477973 14.859 0.0614809 14.8608 0.075326 14.8608C0.145578 14.8608 0.214766 14.8519 0.283877 14.8431C0.301751 14.8408 0.31962 14.8385 0.337502 14.8364C4.44922 14.5882 7.72052 11.1743 7.72052 7.00113C7.72052 2.82794 4.44922 -0.585678 0.337502 -0.834099ZM-2.49197 0.543865C-3.28804 1.46288 -3.93478 2.78246 -4.28987 4.34092C-5.39415 4.22106 -6.06053 4.08155 -6.32917 4.01699C-5.54878 2.40556 -4.17296 1.16028 -2.49197 0.543865ZM-6.7011 4.93236C-6.90741 5.58527 -7.01969 6.28029 -7.01969 7.00113C-7.01853 7.84796 -6.85995 8.6872 -6.55204 9.47608C-6.23738 9.40001 -5.53618 9.25432 -4.39794 9.13081C-4.51864 8.4546 -4.58966 7.74302 -4.58966 7.00113C-4.58904 6.43445 -4.54899 5.86849 -4.4698 5.30737C-5.79667 5.16001 -6.51359 4.98288 -6.7011 4.93236ZM-6.12425 10.3833C-5.76832 10.3075 -5.13057 10.1927 -4.18797 10.0942C-3.81717 11.4663 -3.21394 12.6258 -2.49141 13.459C-4.02864 12.8965 -5.31625 11.8066 -6.12481 10.3833H-6.12425ZM-3.29225 10.0103C-2.7839 11.9791 -1.54376 13.4396 -0.701657 13.7921V9.90723C-1.54376 9.91734 -2.56131 9.95608 -3.29225 10.0103ZM-0.701657 8.92871C-1.54376 8.93937 -2.68987 8.9826 -3.47134 9.04323C-3.57885 8.39481 -3.60945 7.70878 -3.60945 7.00113C-3.60945 6.45095 -3.59878 5.91537 -3.53225 5.39804C-2.73871 5.46092 -1.54376 5.50611 -0.701657 5.51734V8.92843V8.92871ZM-3.39752 4.42794C-2.64467 4.48548 -1.54376 4.52815 -0.701657 4.53853V4.53825V0.210392C-1.54376 0.588778 -2.92734 2.23987 -3.39752 4.42794ZM6.02564 3.96309C5.8721 4.01025 5.25006 4.18373 4.01975 4.32941C3.74213 2.85292 3.24108 1.59481 2.58761 0.686462C4.08571 1.33573 5.30396 2.50457 6.02564 3.96281V3.96309ZM3.11224 4.42653C2.65104 2.21123 1.26326 0.545269 0.42115 0.195795V4.53881C1.26326 4.52843 2.37147 4.48548 3.11224 4.42653ZM0.42115 5.51734C1.26326 5.50639 2.44361 5.46008 3.22733 5.39495C3.29189 5.91313 3.30817 6.44955 3.30817 7.00113C3.30817 7.70962 3.2829 8.39678 3.17848 9.04604C2.40683 8.98373 1.26326 8.93881 0.42115 8.92871V5.51734ZM0.42115 9.90723V13.8067V13.807C1.26326 13.4808 2.51013 12.0077 3.00978 10.0125C2.28838 9.95692 1.26326 9.91734 0.42115 9.90723ZM2.58761 13.3164C3.17652 12.4978 3.64557 11.3992 3.93497 10.1088C4.90283 10.2202 5.51252 10.3499 5.81989 10.4274C5.07976 11.7118 3.94669 12.7245 2.58761 13.3164ZM4.16796 5.29671C4.31565 6.57569 4.29584 7.86847 4.10901 9.14232L4.10929 9.14204C5.30396 9.28239 5.98354 9.45137 6.25385 9.53025C6.56543 8.74653 6.74227 7.8946 6.74227 7.00113C6.74188 6.11797 6.57029 5.24327 6.23701 4.42541L6.39504 4.87173C6.35069 4.88744 5.68094 5.11509 4.16796 5.29671Z" fill="white"/>
</g>
</svg>
